<?xml version="1.0" encoding="UTF-8"?><svg id="Ebene_1" xmlns="http://www.w3.org/2000/svg" viewBox="0 0 345.68 97.99"><defs><style>.cls-1{fill:#202952;}.cls-2{fill:#fff;}.cls-3{fill:#39415b;}</style></defs><path class="cls-1" d="M77.2,38.73c0-5.25-1.11-10.24-3.07-14.77l-.51.16-2.71.4-1.14-4.57-7.99,6.92c1.91,3.52,2.99,7.56,2.99,11.85,0,13.77-11.16,24.94-24.93,24.94s-24.94-11.17-24.94-24.94,11.16-24.94,24.94-24.94c2.23,0,4.38.32,6.43.87h0s.73.02,1.5-.37l8.51-7.57c.67-.75.39-1.21.14-1.42-5-2.49-10.63-3.92-16.59-3.92C19.22,1.38,2.49,18.1,2.49,38.73c0,5.4,1.15,10.54,3.21,15.17h-.01c.21.58,7.22,18.82,33.06,42.23.35.16,1.44.56,2.45-.06.02-.01.03-.02.05-.03,25.55-23.3,32.49-41.43,32.7-42h-.02c2.11-4.67,3.28-9.85,3.28-15.31Z"/><path class="cls-2" d="M115.56,64.49c-2.7,0-5.19-.44-7.47-1.33-2.27-.89-4.25-2.13-5.93-3.73s-2.98-3.48-3.91-5.64c-.92-2.16-1.38-4.52-1.38-7.09s.46-4.94,1.38-7.1c.92-2.16,2.22-4.04,3.91-5.64s3.66-2.84,5.93-3.73c2.27-.89,4.75-1.33,7.42-1.33s5.18.45,7.44,1.33c2.26.89,4.23,2.13,5.91,3.73,1.68,1.6,2.98,3.48,3.91,5.64.92,2.16,1.38,4.52,1.38,7.1s-.46,4.94-1.38,7.12c-.92,2.18-2.23,4.05-3.91,5.64-1.68,1.58-3.65,2.82-5.91,3.71-2.26.89-4.72,1.33-7.39,1.33ZM115.51,58.86c1.75,0,3.36-.3,4.85-.89,1.48-.59,2.77-1.44,3.86-2.55,1.09-1.1,1.94-2.39,2.55-3.86.61-1.47.91-3.09.91-4.87s-.31-3.4-.91-4.87c-.61-1.47-1.46-2.75-2.55-3.86-1.09-1.1-2.37-1.95-3.86-2.55-1.48-.59-3.1-.89-4.85-.89s-3.35.3-4.82.89c-1.47.59-2.75,1.44-3.86,2.55-1.1,1.1-1.96,2.39-2.57,3.86-.61,1.47-.92,3.09-.92,4.87s.3,3.36.92,4.84c.61,1.48,1.46,2.78,2.55,3.88,1.09,1.1,2.37,1.95,3.86,2.55,1.48.59,3.1.89,4.85.89Z"/><path class="cls-2" d="M166.66,43.68c-1.17-2.01-2.76-3.58-4.75-4.7-1.99-1.12-4.29-1.68-6.9-1.68-2.24,0-4.23.49-5.98,1.46-1.06.59-1.99,1.37-2.77,2.33v-3.49h-5.88v35.99h6.18v-12.84c.75.86,1.62,1.56,2.59,2.11,1.77.99,3.72,1.49,5.86,1.49,2.61,0,4.91-.56,6.9-1.69,1.99-1.12,3.58-2.69,4.75-4.72,1.17-2.02,1.75-4.41,1.75-7.14s-.58-5.11-1.75-7.12ZM161.09,55.2c-.69,1.25-1.62,2.21-2.79,2.87-1.17.66-2.5.99-3.98.99s-2.82-.33-4-.99c-1.19-.66-2.13-1.62-2.82-2.87s-1.04-2.72-1.04-4.4.35-3.19,1.04-4.43c.69-1.23,1.63-2.18,2.82-2.84,1.18-.66,2.52-.99,4-.99s2.81.33,3.98.99c1.17.66,2.1,1.61,2.79,2.84.7,1.24,1.04,2.71,1.04,4.43s-.34,3.15-1.04,4.4Z"/><path class="cls-2" d="M197.39,43.73c-1.16-2.05-2.74-3.63-4.75-4.75s-4.3-1.68-6.87-1.68-4.99.58-7.05,1.73c-2.06,1.15-3.68,2.74-4.85,4.77-1.17,2.03-1.75,4.36-1.75,7s.6,4.93,1.8,6.97c1.21,2.04,2.9,3.65,5.1,4.82,2.19,1.17,4.75,1.76,7.69,1.76,2.3,0,4.35-.37,6.15-1.12,1.8-.74,3.29-1.8,4.48-3.19l-3.32-3.8c-.92.99-1.97,1.71-3.16,2.17s-2.52.69-4.01.69c-1.71,0-3.23-.32-4.55-.98-1.31-.66-2.34-1.6-3.06-2.82-.46-.77-.77-1.61-.94-2.52h20.72c.03-.3.05-.61.07-.94.02-.33.03-.63.03-.89,0-2.77-.58-5.18-1.73-7.22ZM178.25,48.67c.14-1,.43-1.89.87-2.69.64-1.17,1.53-2.09,2.67-2.75,1.13-.66,2.46-.99,3.98-.99s2.79.33,3.93.99c1.13.66,2.03,1.57,2.69,2.72.47.82.76,1.72.87,2.72h-15.01Z"/><path class="cls-2" d="M231.05,48.87v15.13h-6.18v-14.34c0-2.34-.55-4.09-1.65-5.24-1.11-1.15-2.65-1.73-4.62-1.73-1.46,0-2.74.3-3.86.89-1.12.59-1.99,1.48-2.6,2.65-.61,1.16-.91,2.64-.91,4.42v13.35h-6.18v-26.4h5.88v3.43c.8-.97,1.8-1.75,2.99-2.37,1.77-.91,3.8-1.36,6.11-1.36,2.11,0,4,.41,5.66,1.24,1.66.82,2.97,2.08,3.93,3.78.96,1.7,1.43,3.88,1.43,6.55Z"/><path class="cls-1" d="M239.51,64V29.39h14.24c3.07,0,5.69.49,7.89,1.48,2.19.99,3.88,2.41,5.07,4.25,1.19,1.85,1.78,4.04,1.78,6.58s-.59,4.73-1.78,6.58c-1.19,1.85-2.88,3.26-5.07,4.25-2.19.99-4.82,1.48-7.89,1.48h-10.68l2.87-3.02v13h-6.43ZM245.94,51.69l-2.87-3.11h10.38c2.83,0,4.97-.6,6.4-1.8,1.43-1.2,2.15-2.89,2.15-5.07s-.72-3.91-2.15-5.09c-1.43-1.19-3.57-1.78-6.4-1.78h-10.38l2.87-3.17v20.02Z"/><path class="cls-1" d="M267.3,64l15.57-34.61h6.33l15.62,34.61h-6.72l-13.4-31.2h2.57l-13.35,31.2h-6.62ZM274.47,55.99l1.73-5.04h18.69l1.73,5.04h-22.15Z"/><path class="cls-1" d="M322.97,64.49c-2.7,0-5.19-.44-7.47-1.33-2.27-.89-4.25-2.13-5.93-3.73s-2.98-3.48-3.91-5.64c-.92-2.16-1.38-4.52-1.38-7.09s.46-4.94,1.38-7.1c.92-2.16,2.22-4.04,3.91-5.64s3.66-2.84,5.93-3.73c2.27-.89,4.75-1.33,7.42-1.33s5.18.45,7.44,1.33c2.26.89,4.23,2.13,5.91,3.71,1.68,1.58,2.98,3.46,3.91,5.64.92,2.18,1.38,4.55,1.38,7.12s-.46,4.94-1.38,7.12c-.92,2.18-2.23,4.05-3.91,5.64-1.68,1.58-3.65,2.82-5.91,3.71-2.26.89-4.72,1.33-7.39,1.33ZM322.92,58.86c1.75,0,3.36-.3,4.85-.89,1.48-.59,2.77-1.44,3.86-2.55,1.09-1.1,1.94-2.4,2.55-3.88.61-1.48.91-3.1.91-4.84s-.31-3.4-.91-4.87c-.61-1.47-1.46-2.75-2.55-3.86-1.09-1.1-2.37-1.95-3.86-2.55-1.48-.59-3.1-.89-4.85-.89s-3.36.3-4.85.89c-1.48.59-2.77,1.44-3.86,2.55-1.09,1.1-1.94,2.39-2.55,3.86-.61,1.47-.92,3.09-.92,4.87s.3,3.36.92,4.84c.61,1.48,1.46,2.78,2.55,3.88,1.09,1.1,2.37,1.95,3.86,2.55,1.48.59,3.1.89,4.85.89ZM334.24,71.56c-1.22,0-2.4-.14-3.54-.42-1.14-.28-2.26-.74-3.36-1.38-1.1-.64-2.25-1.48-3.44-2.52s-2.49-2.32-3.91-3.83l6.82-1.78c.92,1.22,1.8,2.2,2.65,2.94.84.74,1.66,1.28,2.45,1.61.79.33,1.61.49,2.47.49,2.27,0,4.25-.92,5.93-2.77l2.97,3.56c-2.31,2.74-5.32,4.1-9.05,4.1Z"/><polygon class="cls-1" points="39.96 97.21 39.96 97.23 39.95 97.22 39.96 97.21"/><polygon class="cls-1" points="39.95 97.22 39.94 97.23 39.94 97.21 39.95 97.22"/><polygon class="cls-3" points="64.15 33.12 64.13 33.14 64.15 33.12 64.15 33.12"/><path class="cls-2" d="M68.39,14.67c-.68-.58-1.39-.49-1.95-.23l-8.33,7.31-18.66,16.38-6.23-6.8c-.48-.53-1.3-.56-1.83-.08l-7.32,6.72c-.53.48-.56,1.3-.08,1.83l13.88,15.12c.39.43,1.06.46,1.49.07l2.78-2.55,21.99-19.31.02-.02,10-9.16c-1.46-3.39-3.42-6.5-5.76-9.28Z"/></svg>